<?xml version="1.0" standalone="no"?>
<!DOCTYPE svg PUBLIC "-//W3C//DTD SVG 20010904//EN"
 "http://www.w3.org/TR/2001/REC-SVG-20010904/DTD/svg10.dtd">
<svg version="1.0" xmlns="http://www.w3.org/2000/svg"
 width="261.000000pt" height="261.000000pt" viewBox="0 0 261.000000 261.000000"
 preserveAspectRatio="xMidYMid meet">

<g transform="translate(0.000000,261.000000) scale(0.100000,-0.100000)"
fill="#000000" stroke="none">
<path d="M1160 2557 c-3 -3 -27 -8 -55 -11 -186 -24 -427 -122 -580 -237 -324
-241 -509 -598 -510 -984 -1 -421 196 -780 571 -1042 51 -35 204 -109 285
-137 338 -116 713 -92 1034 67 204 100 404 284 525 481 69 114 131 280 155
416 31 180 32 219 5 376 -49 288 -153 495 -349 692 -127 128 -249 210 -426
285 -74 31 -203 69 -285 83 -46 8 -364 17 -370 11z m398 -43 c318 -59 610
-246 797 -509 394 -553 247 -1310 -329 -1694 -474 -315 -1133 -274 -1558 95
-280 244 -426 558 -427 914 -1 460 272 883 704 1090 128 61 302 111 435 124
81 7 290 -3 378 -20z"/>
<path d="M1130 2456 c-412 -65 -742 -303 -915 -660 -93 -193 -128 -385 -107
-589 16 -147 42 -238 107 -373 174 -358 505 -597 915 -659 441 -67 897 116
1160 466 264 352 302 796 102 1183 -164 319 -468 544 -837 621 -106 22 -317
28 -425 11z m220 -211 c0 -11 11 -15 40 -15 33 0 40 -3 40 -20 0 -16 7 -20 30
-20 20 0 30 -5 30 -15 0 -21 27 -19 33 3 3 9 3 -1 0 -24 -4 -32 -1 -42 11 -47
22 -9 23 -135 1 -143 -21 -8 -19 -32 3 -37 9 -2 4 -3 -11 -1 -22 3 -30 -1 -34
-16 -3 -11 -12 -20 -19 -20 -8 0 -14 -7 -14 -15 0 -8 -7 -15 -15 -15 -11 0
-15 -12 -15 -50 0 -47 -2 -50 -25 -50 -25 0 -25 1 -25 80 0 62 3 82 15 86 19
8 22 98 3 92 -7 -3 -14 -22 -16 -44 -2 -21 -10 -43 -18 -47 -10 -6 -14 -29
-14 -88 l0 -80 -27 3 c-28 3 -28 4 -31 85 -2 67 -5 81 -17 76 -12 -4 -15 5
-15 46 0 39 -4 51 -15 51 -11 0 -15 -12 -15 -45 0 -31 5 -47 15 -51 12 -5 15
-24 15 -85 0 -78 0 -79 -25 -79 -23 0 -25 3 -25 50 0 38 -4 50 -15 50 -8 0
-15 6 -15 14 0 8 -7 16 -15 20 -8 3 -15 13 -15 22 0 12 -6 15 -27 10 -16 -3
-22 -3 -15 0 17 8 15 34 -3 34 -12 0 -15 14 -15 65 0 49 4 67 15 71 9 4 15 19
15 35 0 19 5 29 15 29 8 0 15 7 15 15 0 10 10 15 30 15 42 0 40 27 -2 33 -18
3 -1 4 39 3 61 -1 73 2 77 17 5 22 56 24 56 2z m-331 -763 c15 -25 0 -60 -30
-71 -26 -9 -29 -8 -33 12 -2 12 -4 33 -3 47 1 21 6 26 29 25 16 0 32 -6 37
-13z m631 5 c15 -11 20 -71 7 -83 -10 -11 -56 20 -61 41 -12 48 18 71 54 42z
m-496 -33 c5 -14 -14 -54 -40 -81 -6 -6 -17 -25 -24 -42 -7 -17 -16 -31 -21
-31 -5 0 -2 14 6 31 9 17 14 33 11 37 -3 3 -1 11 6 19 8 11 7 12 -6 7 -12 -5
-15 -2 -10 11 4 10 14 15 25 12 10 -3 25 4 35 14 15 17 15 19 0 25 -9 3 -16
10 -16 15 0 13 28 -1 34 -17z m346 17 c0 -5 -7 -12 -16 -15 -15 -6 -15 -8 1
-26 9 -10 22 -16 29 -14 7 3 19 -3 27 -12 12 -16 12 -17 -3 -11 -10 3 -18 2
-18 -3 0 -6 5 -10 11 -10 5 0 7 -4 4 -10 -3 -5 -1 -19 5 -30 6 -12 9 -26 7
-33 -3 -7 -13 6 -22 28 -9 22 -21 42 -25 45 -12 8 -35 54 -35 70 -1 15 13 30
28 30 4 0 7 -4 7 -9z m-417 -39 c-22 -5 -27 5 -12 21 12 13 15 13 20 -2 4 -10
1 -17 -8 -19z m477 4 c0 -3 -9 -6 -20 -6 -22 0 -23 1 -14 24 5 13 8 13 20 1 8
-7 14 -16 14 -19z m-730 -5 c7 -15 7 -22 -2 -27 -7 -4 -10 -4 -6 1 4 4 3 16
-3 26 -5 11 -7 19 -5 19 3 0 10 -9 16 -19z m970 -1 c-6 -11 -13 -20 -16 -20
-2 0 0 9 6 20 6 11 13 20 16 20 2 0 0 -9 -6 -20z m-862 -22 c13 -13 16 -28 5
-28 -5 0 -19 9 -33 20 -23 18 -24 20 -4 20 11 0 25 -5 32 -12z m782 4 c0 -5
-11 -14 -25 -20 -20 -9 -25 -9 -25 2 0 7 3 16 7 19 9 10 43 9 43 -1z m-706
-37 c32 14 34 13 38 -8 2 -12 1 -35 -2 -52 -6 -29 -6 -29 -17 -9 -9 15 -9 24
-1 32 15 15 1 32 -20 24 -29 -11 -76 -52 -68 -59 3 -4 13 3 22 15 21 30 30 28
43 -9 12 -35 7 -47 -37 -85 l-24 -22 25 5 c23 5 103 -14 95 -22 -2 -2 -20 0
-40 4 -32 8 -40 5 -61 -18 -14 -14 -28 -36 -32 -49 -5 -17 -11 -22 -23 -16
-10 3 -30 10 -47 14 -30 8 -30 8 8 9 31 1 39 6 47 27 13 33 14 32 -16 32 -15
0 -32 9 -41 21 -11 16 -21 20 -36 15 l-22 -6 21 23 c12 13 25 34 28 46 4 11
13 24 21 27 8 3 15 11 15 18 0 7 12 14 27 15 l28 1 -23 -18 c-27 -23 -29 -34
-2 -20 11 6 27 27 37 48 11 26 17 32 20 20 4 -15 8 -15 37 -3z m601 -7 c7 -6
3 -9 -10 -6 -17 2 -20 -2 -17 -29 2 -17 -2 -34 -7 -38 -7 -4 -11 4 -11 18 0
14 -7 27 -15 31 -8 3 -15 10 -15 17 0 6 7 8 16 5 12 -5 15 -2 10 10 -5 12 -1
14 17 9 12 -4 27 -12 32 -17z m50 -13 c8 -19 24 -39 35 -45 27 -14 25 -3 -2
20 l-23 18 28 -1 c15 -1 27 -7 27 -12 0 -6 9 -18 20 -28 11 -9 20 -23 20 -30
0 -7 10 -24 21 -36 22 -23 22 -23 1 -17 -14 5 -25 1 -36 -15 -10 -15 -26 -22
-45 -22 -29 0 -30 -1 -15 -29 12 -23 21 -28 52 -29 l37 -1 -45 -12 c-51 -14
-60 -12 -60 13 0 10 -11 28 -25 41 -21 20 -31 22 -72 17 -39 -5 -44 -4 -28 5
11 6 41 12 67 12 l47 1 -23 20 c-42 37 -47 49 -35 84 13 37 22 39 43 9 9 -12
18 -19 21 -17 3 3 -6 16 -19 28 -15 14 -22 30 -19 42 7 27 12 24 28 -16z
m-504 -65 c-17 -40 -31 -81 -31 -91 0 -29 -38 -25 -46 5 -6 25 23 93 50 115 9
8 16 19 16 25 0 18 23 37 33 27 5 -5 -5 -39 -22 -81z m309 58 c0 -5 11 -24 24
-41 32 -42 46 -80 39 -106 -7 -26 -43 -29 -43 -3 0 9 -14 50 -30 90 -31 72
-32 105 -4 81 8 -6 14 -16 14 -21z m-390 12 c0 -5 -4 -10 -10 -10 -5 0 -10 5
-10 10 0 6 5 10 10 10 6 0 10 -4 10 -10z m380 -115 c0 -5 -5 -3 -10 5 -5 8
-10 20 -10 25 0 6 5 3 10 -5 5 -8 10 -19 10 -25z m657 -11 c-3 -3 -12 -4 -19
-1 -8 3 -5 6 6 6 11 1 17 -2 13 -5z m-650 -36 c-3 -7 -5 -2 -5 12 0 14 2 19 5
13 2 -7 2 -19 0 -25z m-1017 2 c0 -5 -4 -10 -10 -10 -5 0 -10 5 -10 10 0 6 5
10 10 10 6 0 10 -4 10 -10z m1735 0 c3 -5 1 -10 -4 -10 -6 0 -11 5 -11 10 0 6
2 10 4 10 3 0 8 -4 11 -10z m-1515 -55 c-7 -9 -15 -13 -19 -10 -3 3 1 10 9 15
21 14 24 12 10 -5z m143 -86 c26 -6 63 -9 81 -6 28 4 33 3 29 -12 -4 -15 -13
-16 -78 -10 -91 9 -115 16 -115 35 0 10 6 13 18 10 9 -3 39 -10 65 -17z m1074
6 c0 -8 -9 -17 -19 -21 -19 -6 -168 -22 -168 -18 0 1 -3 9 -6 17 -4 12 2 14
33 10 21 -2 63 2 93 11 70 19 67 19 67 1z m-202 -64 c-3 -6 -11 -11 -17 -11
-6 0 -6 6 2 15 14 17 26 13 15 -4z m-735 -1 c0 -5 -2 -10 -4 -10 -3 0 -8 5
-11 10 -3 6 -1 10 4 10 6 0 11 -4 11 -10z m-70 -39 c0 -11 -4 -23 -10 -26 -6
-4 -10 5 -10 19 0 14 5 26 10 26 6 0 10 -9 10 -19z m873 -8 c-5 -12 -3 -14 7
-8 9 5 11 4 6 -4 -10 -16 -26 -4 -26 20 0 11 4 18 10 14 5 -3 6 -13 3 -22z
m-1338 1 c9 -4 21 -18 26 -31 5 -15 14 -22 21 -18 7 4 4 -1 -7 -10 -14 -11
-36 -15 -75 -14 -30 2 -65 -1 -77 -5 -12 -4 -24 -3 -27 2 -3 6 9 13 27 16 19
3 46 20 62 36 16 17 30 30 31 30 1 0 10 -3 19 -6z m1836 -24 c16 -16 45 -32
64 -36 19 -3 32 -10 29 -16 -3 -5 -15 -6 -27 -2 -12 4 -55 7 -94 7 -40 0 -73
4 -73 9 0 9 57 68 66 68 3 0 19 -13 35 -30z m-1605 12 c7 -4 14 -18 15 -32 4
-25 3 -25 -81 -32 -47 -3 -89 -2 -94 3 -6 5 1 9 17 9 32 0 77 21 96 44 15 17
29 20 47 8z m967 1 c-7 -2 -21 -2 -30 0 -10 3 -4 5 12 5 17 0 24 -2 18 -5z
m411 -5 c-9 -15 59 -48 88 -43 16 3 28 1 28 -4 0 -11 -36 -24 -48 -17 -4 2
-43 6 -86 7 -42 2 -80 7 -82 11 -3 4 2 8 11 8 8 0 19 8 22 18 4 9 11 20 17 24
14 10 56 6 50 -4z m-1227 -20 c0 -9 -14 -12 -44 -9 -56 4 -56 21 0 21 28 0 44
-4 44 -12z m43 8 c0 -3 -4 -8 -10 -11 -5 -3 -10 -1 -10 4 0 6 5 11 10 11 6 0
10 -2 10 -4z m1070 -5 c0 -5 -20 -11 -45 -13 -31 -2 -45 1 -45 9 0 9 16 13 45
13 25 0 45 -4 45 -9z m-1025 -21 c-3 -5 -12 -10 -18 -10 -7 0 -6 4 3 10 19 12
23 12 15 0z m165 -5 c6 3 10 -1 10 -9 0 -21 -53 -21 -74 0 -23 22 -20 24 19
13 19 -6 40 -7 45 -4z m588 -7 c-25 -21 -79 -21 -86 0 -3 9 3 11 22 6 14 -3
26 -2 26 3 0 5 13 10 30 10 l29 0 -21 -19z m122 16 c0 -8 -19 -13 -24 -6 -3 5
1 9 9 9 8 0 15 -2 15 -3z m37 0 c-3 -3 -12 -4 -19 -1 -8 3 -5 6 6 6 11 1 17
-2 13 -5z m-1533 -30 c3 -8 2 -12 -4 -9 -6 3 -10 10 -10 16 0 14 7 11 14 -7z"/>
<path d="M875 1280 c-3 -5 -1 -10 4 -10 6 0 11 5 11 10 0 6 -2 10 -4 10 -3 0
-8 -4 -11 -10z"/>
<path d="M935 1240 c-10 -11 -13 -20 -8 -20 13 0 38 29 31 35 -3 3 -13 -4 -23
-15z"/>
<path d="M1660 1253 c0 -13 29 -38 35 -31 3 3 -4 13 -15 23 -11 10 -20 13 -20
8z"/>
</g>
</svg>
