<?xml version="1.0" standalone="no"?>
<!DOCTYPE svg PUBLIC "-//W3C//DTD SVG 20010904//EN"
 "http://www.w3.org/TR/2001/REC-SVG-20010904/DTD/svg10.dtd">
<svg version="1.0" xmlns="http://www.w3.org/2000/svg"
 width="1019.000000pt" height="705.000000pt" viewBox="0 0 1019.000000 705.000000"
 preserveAspectRatio="xMidYMid meet">

<g transform="translate(0.000000,705.000000) scale(0.100000,-0.100000)"
fill="#000000" stroke="none">
<path d="M5040 6565 l0 -75 -180 0 -180 0 0 -70 0 -70 180 0 179 0 3 68 3 67
123 3 122 3 0 -71 0 -70 185 0 185 0 0 -75 0 -74 138 -3 137 -3 3 -72 3 -73
64 0 65 0 0 -120 0 -119 67 -3 66 -3 5 -322 5 -323 -72 0 -71 0 0 -80 0 -80
-65 0 -65 0 0 -75 0 -75 -70 0 -70 0 0 -70 0 -70 -70 0 -70 0 -2 -222 -3 -223
-110 0 -110 0 -3 235 c-2 129 0 295 3 368 l7 132 69 0 69 0 0 205 0 205 -70 0
-70 0 0 -205 0 -205 -68 0 -69 0 -6 -232 c-4 -128 -7 -295 -7 -370 l0 -136
-121 4 -120 4 -3 78 c-2 42 -4 205 -5 362 l-1 285 -67 -2 -68 -1 -3 -366 -2
-366 -105 0 -105 0 0 -75 0 -75 -45 0 -45 0 0 -170 0 -170 80 0 81 0 -3 170
-3 170 413 0 412 0 0 -170 0 -170 80 0 80 0 0 170 0 170 -40 0 -40 0 0 75 0
75 73 0 72 0 -3 220 -3 220 71 0 70 0 0 75 0 75 65 0 65 0 0 75 0 75 70 0 70
0 0 80 0 80 71 0 72 0 -4 318 -4 317 -65 5 -65 5 -3 122 -3 122 -67 3 -67 3
-3 73 -3 72 -64 0 -65 0 0 75 0 75 -140 0 -140 0 0 70 0 70 -185 0 -185 0 0
75 0 75 -125 0 -125 0 0 -75z"/>
<path d="M4400 6270 l0 -70 -70 0 -70 0 0 -75 0 -75 -60 0 -60 0 0 -120 0
-120 -75 0 -75 0 0 -325 0 -325 75 0 75 0 0 -80 0 -80 65 0 65 0 0 -75 0 -75
65 0 64 0 3 -72 3 -73 65 -1 65 -1 3 -222 2 -221 70 0 70 0 0 225 0 225 -70 0
-70 0 0 70 0 70 -65 0 -64 0 -3 73 -3 72 -67 3 -67 3 -3 77 -3 77 -63 3 -62 3
2 321 3 321 60 1 60 1 3 122 3 122 67 3 67 3 3 73 3 72 134 0 135 0 0 70 0 70
-140 0 -140 0 0 -70z"/>
<path d="M4760 5200 l0 -210 70 0 70 0 0 210 0 210 -70 0 -70 0 0 -210z"/>
<path d="M4770 3940 l0 -159 63 -3 62 -3 3 -67 3 -68 65 0 c81 0 94 -11 94
-79 l0 -51 110 0 109 0 4 58 3 57 2 -65 2 -65 -125 0 -125 0 0 63 0 62 -70 0
-70 0 0 -70 0 -70 70 0 70 0 0 -70 0 -70 59 0 58 0 7 -747 c3 -412 9 -1163 12
-1670 l7 -923 25 0 25 0 -7 923 c-3 507 -9 1258 -12 1670 l-7 747 42 0 41 0 0
70 0 70 70 0 69 0 3 68 3 67 50 2 50 3 375 -261 c206 -143 382 -267 390 -275
12 -12 12 -14 -5 -14 -35 0 -82 -37 -94 -73 -7 -19 -26 -45 -44 -58 -43 -32
-44 -56 -1 -64 19 -3 34 -10 34 -15 0 -6 9 -10 19 -10 11 0 23 -9 26 -20 3
-11 13 -20 21 -20 8 0 14 -4 14 -10 0 -5 -5 -10 -10 -10 -6 0 -9 -6 -8 -12 2
-9 -15 -13 -62 -13 -36 0 -82 -4 -104 -9 l-38 -9 17 27 c39 59 -9 156 -94 192
-49 20 -61 17 -23 -7 17 -12 32 -29 32 -40 0 -17 -8 -19 -60 -19 -59 0 -79
-13 -40 -25 11 -3 20 -11 20 -16 0 -13 -6 -12 -49 10 -41 21 -81 60 -49 48 19
-7 34 8 18 18 -24 15 -7 24 19 11 26 -14 30 -13 50 5 22 20 25 36 15 63 -9 25
-94 21 -128 -5 -14 -11 -38 -23 -53 -25 -15 -3 -32 -9 -38 -13 -5 -4 -21 -8
-33 -9 -27 -1 -72 -28 -72 -42 0 -6 -7 -10 -16 -10 -30 0 -9 -95 38 -175 23
-38 48 -84 58 -101 9 -17 21 -29 28 -26 16 5 15 -3 -3 -38 -16 -31 -32 -42
-21 -15 9 24 -22 18 -38 -7 -26 -43 -27 -65 -6 -112 13 -27 19 -53 15 -65 -4
-12 -2 -21 4 -21 6 0 11 -17 11 -39 0 -21 6 -44 14 -50 8 -7 17 -31 21 -54 7
-50 25 -106 74 -242 19 -55 35 -104 33 -108 -1 -4 3 -18 10 -30 7 -12 13 -26
13 -32 1 -21 47 -160 55 -165 4 -3 10 -23 13 -45 7 -54 48 -181 114 -350 54
-138 75 -196 158 -430 23 -66 48 -136 55 -155 22 -61 13 -60 265 -49 249 12
258 12 388 24 l87 7 0 -80 0 -80 -76 -46 c-42 -24 -98 -53 -125 -62 -50 -18
-63 -33 -31 -35 9 0 -5 -7 -33 -15 -27 -8 -88 -15 -135 -15 -47 0 -101 -4
-120 -9 -28 -6 -16 -8 60 -11 78 -2 86 -3 45 -8 -31 -4 -44 -9 -34 -13 22 -9
100 2 93 13 -3 5 5 5 18 0 13 -5 33 -5 48 1 39 15 120 26 300 43 91 9 174 18
185 22 13 3 17 2 10 -4 -9 -9 -140 -33 -260 -48 -22 -3 -87 -12 -145 -21 -277
-41 -421 -40 -517 5 l-58 28 85 13 c47 7 96 14 108 16 13 1 45 7 70 13 26 5
79 13 118 16 39 3 84 10 100 15 47 16 -177 4 -291 -15 -176 -30 -202 -36 -221
-51 -18 -14 -17 -16 21 -49 55 -50 126 -69 234 -62 88 5 529 53 567 62 21 5
152 18 494 50 85 8 211 22 280 30 69 8 133 15 143 15 13 0 17 8 17 35 l0 35
-167 0 c-198 0 -381 -16 -404 -36 -19 -17 -39 -18 -39 -3 0 7 -7 8 -17 4 -38
-16 -72 -12 -79 8 -4 11 -1 23 7 28 22 14 29 11 30 -13 1 -18 3 -16 11 10 6
17 17 32 24 32 7 0 16 5 20 12 4 7 3 8 -5 4 -6 -4 -14 0 -17 8 -6 16 -35 22
-48 9 -4 -4 -27 -12 -51 -19 -47 -11 -59 -2 -32 25 10 10 8 11 -7 5 -16 -6
-18 -3 -13 37 3 24 6 63 6 87 l1 42 39 0 c36 0 101 33 126 64 11 13 216 127
355 196 47 23 95 51 106 62 l22 19 15 -43 c41 -117 117 -383 117 -412 0 -63
47 -103 77 -66 11 13 12 13 13 0 1 -8 3 -23 5 -33 2 -9 -1 -15 -6 -11 -5 3 -9
-13 -9 -36 l0 -41 21 20 c15 14 20 28 17 45 -3 14 -1 26 3 26 5 0 9 20 9 45 0
32 5 47 18 54 16 9 18 2 16 -92 -1 -56 0 -82 2 -57 15 172 13 168 44 179 18 6
32 6 35 0 4 -5 11 -9 16 -9 6 0 8 4 5 9 -8 13 14 28 52 36 29 6 36 3 60 -27
75 -92 236 -218 277 -218 8 0 15 -4 15 -9 0 -5 11 -12 25 -15 14 -4 35 -16 46
-27 16 -16 23 -18 29 -9 5 8 10 9 14 1 4 -6 20 -9 36 -7 16 2 27 -1 24 -5 -3
-5 0 -9 5 -9 6 0 11 4 11 9 0 5 9 7 20 4 27 -7 72 5 64 18 -4 7 -29 8 -68 4
-61 -7 -62 -6 -192 59 -105 53 -146 80 -210 140 -78 72 -79 74 -65 100 13 23
13 31 -3 63 -10 21 -31 54 -47 74 -16 20 -29 43 -29 51 0 7 -16 47 -35 87 -20
41 -33 76 -31 79 3 2 -4 22 -15 44 -25 48 -18 75 22 83 27 6 83 41 286 177 39
26 75 48 79 48 5 0 34 25 64 55 l56 56 34 -88 c38 -101 76 -181 96 -203 7 -9
32 -57 54 -108 32 -71 48 -130 70 -248 29 -154 48 -224 61 -224 4 0 7 -10 7
-22 0 -13 0 -34 1 -48 0 -14 -2 -47 -5 -75 l-6 -50 21 25 c15 17 20 32 16 48
-4 15 -2 21 5 17 6 -4 10 11 10 42 0 35 5 51 18 59 16 11 17 5 16 -90 l-2
-101 7 101 c6 68 14 109 26 127 21 33 31 34 46 5 12 -23 13 -23 26 11 11 25
17 31 26 22 17 -17 25 -14 29 10 3 18 10 13 48 -35 25 -32 54 -68 65 -81 35
-40 198 -149 250 -167 28 -10 46 -17 40 -18 -5 0 1 -7 14 -16 19 -14 25 -14
32 -3 6 11 9 10 15 -4 4 -12 10 -15 19 -7 6 5 15 7 19 3 7 -8 81 -5 110 3 37
12 -7 23 -65 17 -51 -5 -64 -2 -130 30 -161 79 -278 158 -313 213 -10 14 -13
23 -6 19 6 -4 18 1 25 11 9 12 14 14 15 6 0 -10 7 -9 29 4 17 10 28 21 25 26
-3 4 0 16 6 25 11 17 11 17 6 1 -3 -10 -1 -18 4 -18 5 0 15 18 21 40 7 22 16
40 21 40 15 0 -25 84 -75 157 -27 40 -62 97 -78 125 -16 29 -29 47 -29 40 0
-7 7 -24 17 -38 l16 -25 -39 18 c-21 10 -45 24 -52 31 -7 6 -20 12 -29 12 -12
0 -14 7 -8 37 4 21 9 56 11 77 4 42 24 76 24 41 0 -10 2 -16 5 -13 7 7 -21
126 -33 141 -5 7 -15 30 -22 52 -12 37 -89 229 -141 353 -29 70 -37 58 -10
-15 13 -37 20 -73 17 -101 -4 -49 -16 -69 -16 -28 0 26 -3 28 -27 21 -31 -7
-48 -27 -64 -75 l-12 -35 -8 29 c-5 19 -3 38 6 57 17 32 19 59 5 59 -6 0 -6 9
0 24 15 41 22 159 11 189 -14 36 -27 34 -35 -4 -3 -17 -15 -43 -26 -59 -11
-15 -20 -32 -20 -38 0 -5 -7 -16 -17 -23 -15 -13 -15 -12 -4 8 6 13 9 23 6 23
-4 0 3 13 14 29 12 16 21 43 21 60 0 55 -33 56 -205 7 -33 -9 -67 -20 -75 -23
-8 -4 -46 -18 -85 -33 -44 -16 -69 -31 -67 -39 2 -8 -3 -11 -13 -8 -20 8 -47
-2 -39 -15 4 -6 -8 -7 -32 -2 -31 6 -36 4 -31 -8 4 -12 -6 -19 -41 -29 -26 -7
-50 -13 -53 -12 -4 1 -31 -7 -60 -18 -78 -30 -139 -41 -155 -28 -8 7 -6 -8 6
-43 10 -29 28 -107 40 -173 11 -66 23 -131 26 -145 l5 -25 -14 25 c-8 14 -19
53 -25 87 -11 64 -45 116 -84 129 -18 5 -19 12 -13 66 6 53 4 66 -20 113 -18
36 -36 57 -56 65 -35 15 -38 30 -6 30 16 0 8 8 -31 30 -53 31 -60 50 -19 50
47 0 49 17 4 30 -54 14 -93 7 -215 -41 l-83 -33 -32 39 c-18 22 -41 49 -52 59
-11 11 -27 30 -35 42 -23 33 -292 354 -297 354 -2 0 -1 -10 2 -22 6 -17 4 -20
-4 -12 -7 6 -14 28 -17 50 -5 35 -4 37 9 22 13 -17 16 -14 39 30 14 26 50 92
81 148 30 55 65 130 77 165 46 128 51 142 66 171 21 41 13 54 -43 66 -26 6
-57 14 -68 18 -18 7 -19 6 -6 -9 8 -10 11 -20 8 -23 -3 -3 -39 -8 -80 -11 -67
-5 -76 -4 -96 16 -26 26 -26 26 -96 -1 -33 -12 -51 -24 -44 -28 8 -6 8 -9 0
-14 -6 -4 -10 -23 -7 -42 2 -27 -2 -38 -18 -49 -23 -17 -102 -20 -111 -5 -3 5
-12 7 -19 4 -10 -4 -12 6 -8 47 4 40 1 54 -11 60 -9 5 -21 34 -27 64 -22 108
-120 158 -298 154 l-98 -3 -388 270 -387 269 2 55 3 55 -72 3 -72 3 0 -76 0
-75 -65 0 c-37 0 -65 4 -65 10 0 6 27 10 60 10 l59 0 3 68 3 67 73 3 72 3 0
159 0 160 -400 0 -400 0 0 -160z m1857 -896 c94 -47 99 -54 86 -108 -7 -33 -7
-50 3 -68 14 -26 12 -51 -14 -153 -20 -77 -40 -92 -87 -61 -13 9 -31 16 -39
16 -32 0 -127 43 -141 63 -8 12 -17 45 -20 72 -4 28 -11 54 -16 60 -19 20 -9
96 22 162 l31 66 51 -6 c30 -4 83 -22 124 -43z m-7 36 c0 -5 -7 -7 -15 -4 -8
4 -15 8 -15 10 0 2 7 4 15 4 8 0 15 -4 15 -10z m-880 -186 c0 -2 -9 -4 -20 -4
-11 0 -20 4 -20 9 0 5 9 7 20 4 11 -3 20 -7 20 -9z m25 -4 c3 -5 1 -10 -4 -10
-6 0 -11 5 -11 10 0 6 2 10 4 10 3 0 8 -4 11 -10z m91 -47 c-6 -6 -56 20 -56
29 0 5 13 1 30 -8 16 -10 28 -19 26 -21z m1445 -104 c-38 -108 -61 -153 -61
-116 0 10 7 29 16 43 15 22 15 24 0 18 -24 -9 -20 17 10 61 18 26 22 41 15 48
-8 8 -4 18 11 34 45 48 48 26 9 -88z m-1468 80 c60 -30 77 -48 77 -80 0 -15 5
-31 10 -34 6 -3 10 -1 10 4 0 22 19 10 31 -18 9 -19 16 -26 21 -18 9 14 88
-71 82 -88 -3 -6 3 -18 12 -26 16 -12 17 -12 11 4 -3 9 -2 17 3 17 6 0 10 -4
10 -10 0 -10 84 -100 93 -100 3 0 4 11 3 25 -1 17 -21 45 -61 83 -33 31 -53
48 -45 38 8 -11 10 -17 4 -15 -13 4 -104 87 -104 93 0 3 29 8 64 11 91 10 106
-3 110 -91 2 -38 40 -114 57 -114 3 0 6 -28 6 -63 -1 -35 3 -69 7 -76 4 -7 5
-15 2 -19 -7 -7 -42 39 -38 50 1 4 -9 15 -23 24 -14 9 -34 32 -46 53 -24 38
-69 91 -79 91 -3 0 -6 -9 -7 -20 -1 -11 2 -18 7 -15 8 5 52 -59 56 -83 1 -8
10 -22 18 -31 9 -10 16 -23 16 -29 0 -6 9 -26 20 -45 38 -65 65 -187 40 -187
-5 0 -10 4 -10 9 0 4 -17 30 -38 57 -45 57 -81 128 -85 170 -2 16 -16 49 -31
72 -15 24 -24 47 -21 52 3 5 1 11 -4 14 -4 3 -11 25 -15 48 -8 48 -57 131 -64
109 -2 -7 5 -32 17 -56 27 -55 39 -109 22 -104 -15 5 -71 104 -71 125 0 21
-61 112 -99 148 -52 50 -38 60 32 25z m507 11 c0 -5 -7 -10 -16 -10 -8 0 -12
5 -9 10 3 6 10 10 16 10 5 0 9 -4 9 -10z m772 -169 c-5 -61 -12 -65 -14 -10 0
24 -2 51 -3 59 -1 8 1 19 4 24 9 18 17 -28 13 -73z m-113 34 c12 -12 -42 -49
-153 -104 -67 -34 -125 -61 -129 -61 -4 0 -1 10 7 23 8 12 18 42 22 67 11 72
17 79 82 83 60 5 163 -1 171 -8z m-768 -63 c20 -13 76 -72 96 -101 2 -2 31 -5
65 -6 55 -2 125 -24 114 -36 -2 -2 8 -15 22 -29 13 -14 22 -18 19 -10 -3 8 -8
24 -12 35 -4 11 5 3 19 -17 15 -21 29 -38 31 -38 3 0 2 26 -1 58 -8 74 6 61
40 -38 28 -78 53 -120 40 -65 -4 17 -10 35 -14 40 -4 6 -13 28 -20 50 -7 22
-22 50 -33 63 -13 14 -16 22 -8 22 8 0 11 8 8 20 -3 10 1 27 9 37 11 15 13 16
14 2 0 -9 9 -24 20 -34 11 -10 20 -24 20 -30 0 -7 6 -18 14 -24 8 -7 17 -24
21 -39 3 -15 20 -56 37 -92 21 -46 26 -66 18 -68 -9 -3 -5 -11 11 -24 73 -58
132 -100 161 -114 21 -10 40 -30 52 -57 11 -23 28 -48 38 -55 10 -7 16 -17 13
-22 -6 -9 53 -45 61 -38 2 2 -2 54 -9 115 -7 62 -8 109 -4 106 5 -3 8 11 5 31
-2 20 -1 33 3 28 21 -20 90 -176 105 -233 10 -39 26 -75 42 -92 22 -23 24 -29
12 -37 -12 -8 -11 -10 6 -10 12 0 27 -7 34 -15 10 -12 6 -15 -30 -21 -26 -4
-51 -17 -66 -33 -37 -39 -91 -122 -109 -169 -10 -23 -21 -42 -26 -42 -4 0 -24
13 -42 30 -35 30 -51 31 -40 2 5 -11 2 -13 -8 -8 -8 4 -6 1 4 -7 9 -8 17 -19
17 -25 0 -6 7 -9 15 -6 8 4 15 1 15 -4 0 -6 -8 -9 -17 -7 -76 18 -97 27 -144
58 -30 20 -56 34 -58 31 -2 -2 8 -28 23 -58 16 -31 34 -92 42 -143 14 -80 36
-125 53 -107 3 3 -2 10 -12 15 -29 17 -19 27 17 15 19 -5 32 -15 29 -22 -7
-19 27 -25 57 -9 23 12 46 13 132 5 102 -10 215 -36 204 -47 -3 -3 -43 2 -89
12 -47 10 -91 15 -98 12 -8 -3 0 -6 16 -7 17 -1 41 -6 55 -11 16 -5 2 -6 -40
-3 -103 9 -268 -30 -292 -69 -4 -7 -16 -13 -28 -13 -15 -1 -20 5 -20 22 0 12
-4 26 -10 29 -6 4 -8 -29 -6 -92 5 -119 -1 -112 -13 17 -19 184 -26 210 -80
302 -42 73 -58 84 -30 21 28 -61 34 -78 49 -131 17 -65 6 -61 -19 6 -11 33
-36 78 -53 102 -18 24 -44 60 -58 79 -14 20 -40 45 -57 57 l-31 21 -144 -28
c-304 -58 -478 -74 -502 -48 -8 9 -3 10 20 6 29 -6 31 -4 32 26 1 42 -16 121
-39 177 -9 25 -34 86 -53 137 -47 118 -84 199 -112 243 -23 37 -45 101 -64
187 -10 46 -9 55 7 77 31 42 52 40 99 -10 41 -45 64 -98 64 -147 0 -28 15 -44
23 -25 3 8 6 5 6 -6 1 -10 30 -48 66 -84 54 -54 76 -87 127 -190 53 -109 62
-134 66 -196 3 -50 -1 -86 -12 -119 -9 -26 -16 -49 -16 -51 0 -8 150 27 320
73 19 5 78 15 131 22 86 11 99 10 120 -4 25 -18 89 -23 89 -7 0 15 -40 37 -90
50 -51 14 -87 49 -180 177 -62 84 -76 134 -47 165 13 14 14 34 2 61 -8 19 2
73 12 63 4 -3 14 1 24 10 10 9 25 14 33 11 9 -4 16 3 19 21 5 22 -3 36 -36 71
-45 47 -42 46 43 -8 59 -38 144 -121 166 -162 15 -30 7 -42 -31 -52 -20 -5
-20 -5 0 -6 11 0 31 6 43 15 15 10 32 14 50 9 26 -6 26 -5 -8 24 -60 52 -19
33 65 -29 43 -33 81 -57 84 -55 2 3 2 6 0 8 -2 1 -31 25 -64 52 -58 49 -77 63
-194 153 -31 24 -77 63 -102 87 -53 51 -84 65 -139 65 -29 0 -47 -7 -70 -28
l-30 -28 25 -35 c48 -66 64 -109 52 -142 -12 -36 -65 -117 -76 -117 -4 0 -16
9 -26 20 -15 17 -16 26 -8 53 5 17 10 58 12 89 2 53 0 59 -23 69 -26 12 -26
11 7 77 22 43 21 59 -4 120 -17 41 -28 54 -55 64 -19 7 -34 16 -34 20 0 13 23
9 51 -10z m898 -123 c1 -23 -4 -39 -13 -42 -19 -7 -30 37 -16 63 6 11 8 24 5
29 -3 5 -2 17 2 28 6 15 9 13 14 -12 4 -16 7 -46 8 -66z m-66 -52 c18 -30 23
-51 20 -71 -6 -27 -9 -23 -35 45 -15 40 -28 75 -28 77 0 11 22 -14 43 -51z
m-287 -28 c19 -22 129 -79 152 -79 9 0 11 -16 8 -62 -3 -36 0 -68 6 -75 6 -7
6 -13 1 -13 -16 0 -85 82 -166 198 -37 52 -37 71 -1 31z m250 -154 c7 -27 17
-61 20 -74 5 -17 4 -22 -4 -17 -17 10 -15 -9 2 -23 17 -15 26 -81 11 -81 -14
0 -58 47 -75 79 -14 27 -31 210 -23 242 5 17 10 12 30 -28 14 -26 31 -70 39
-98z m-1347 2 c1 -5 -3 -5 -9 -2 -5 3 -10 16 -9 28 0 21 1 21 9 2 5 -11 9 -24
9 -28z m1037 -34 c-7 -7 -26 7 -26 19 0 6 6 6 15 -2 9 -7 13 -15 11 -17z
m-993 -40 c3 -10 8 -31 11 -48 5 -25 4 -27 -5 -12 -16 28 -29 77 -19 77 5 0
11 -8 13 -17z m37 -121 c0 -7 -4 -10 -10 -7 -5 3 -10 16 -10 28 0 18 2 19 10
7 5 -8 10 -21 10 -28z m35 -137 c15 -38 31 -88 37 -110 6 -22 15 -46 21 -53 5
-7 7 -15 4 -19 -8 -7 -24 34 -103 252 -5 14 -4 17 4 10 6 -5 23 -41 37 -80z
m1586 -111 c31 -18 64 -34 72 -34 9 0 19 -5 23 -11 9 -15 -31 -6 -113 27 -34
13 -71 24 -82 24 -11 0 -23 5 -27 11 -5 8 1 10 20 7 14 -3 26 -1 26 3 0 5 -7
9 -15 9 -8 0 -15 4 -15 10 0 13 42 -4 111 -46z m1426 49 c-11 -11 -137 -51
-131 -41 8 13 -6 10 -113 -27 -107 -37 -123 -41 -107 -26 10 10 254 88 294 94
43 7 64 7 57 0z m-1557 -186 c0 -2 -15 -16 -32 -33 l-33 -29 29 33 c28 30 36
37 36 29z m-195 -224 c-3 -13 -9 -23 -14 -23 -9 0 -5 65 7 110 5 20 7 17 10
-19 2 -25 1 -55 -3 -68z m1987 -15 c-7 -7 -12 -20 -12 -30 0 -10 -4 -18 -10
-18 -13 0 -13 6 6 41 8 17 18 28 22 25 3 -4 0 -12 -6 -18z m-6 -204 c-4 -9 -9
-15 -11 -12 -3 3 -3 13 1 22 4 9 9 15 11 12 3 -3 3 -13 -1 -22z m174 3 c0 -7
-7 -22 -15 -33 -14 -18 -14 -17 -15 14 0 22 5 32 15 32 8 0 15 -6 15 -13z
m-1116 -12 c3 -8 1 -15 -4 -15 -6 0 -10 7 -10 15 0 8 2 15 4 15 2 0 6 -7 10
-15z m16 -51 c0 -8 -4 -12 -10 -9 -5 3 -10 10 -10 16 0 5 5 9 10 9 6 0 10 -7
10 -16z m-397 -25 c6 -24 -16 -35 -135 -71 -43 -12 -78 -27 -78 -31 0 -10 -2
-11 128 34 51 17 95 29 99 26 12 -13 -19 -35 -95 -67 -42 -18 -96 -42 -120
-53 -66 -30 -197 -47 -417 -54 -177 -5 -203 -8 -226 -26 -15 -10 -33 -17 -41
-14 -8 3 -3 9 15 16 32 13 33 27 7 101 -18 51 -29 140 -12 97 10 -23 61 -57
89 -57 12 0 24 -4 27 -9 9 -14 289 -14 319 0 15 7 24 16 21 20 -8 13 35 27
107 34 79 8 225 42 259 61 35 19 47 17 53 -7z m27 -94 c0 -15 -91 -58 -148
-71 -90 -19 -109 -17 -42 5 30 10 64 22 75 28 63 33 115 51 115 38z m10 -45
c0 -5 -5 -10 -11 -10 -5 0 -7 5 -4 10 3 6 8 10 11 10 2 0 4 -4 4 -10z m1508
-35 c-3 -3 -9 2 -12 12 -6 14 -5 15 5 6 7 -7 10 -15 7 -18z m-2425 -114 c-13
-11 -23 -24 -23 -29 0 -6 -24 -26 -52 -47 -99 -68 -123 -86 -155 -118 -18 -17
-33 -27 -32 -21 0 5 47 49 104 99 57 49 102 92 99 96 -2 4 3 12 11 19 8 7 15
9 15 6 0 -4 8 -2 18 3 29 17 38 12 15 -8z m2426 -48 c0 -25 -1 -26 -9 -8 -12
27 -12 35 0 35 6 0 10 -12 9 -27z m-2150 -129 c1 -112 -13 -194 -30 -177 -11
11 -18 194 -8 187 4 -2 9 19 13 46 11 85 24 55 25 -56z m-32 -236 c-3 -7 -5
-2 -5 12 0 14 2 19 5 13 2 -7 2 -19 0 -25z m167 -12 c-3 -9 -10 -14 -14 -11
-5 3 -11 1 -15 -5 -3 -5 -12 -10 -18 -10 -7 0 2 11 18 24 33 27 39 27 29 2z
m-225 -81 c2 -20 -28 33 -34 61 -4 25 -2 23 14 -11 11 -22 20 -44 20 -50z m51
-32 c0 -2 -4 -3 -9 -3 -9 0 -51 91 -51 111 0 9 59 -98 60 -108z m74 62 c3 -8
12 -15 21 -15 8 0 15 -4 15 -9 0 -8 -21 -8 -40 -1 -3 1 -9 2 -14 1 -15 -3 -26
23 -13 31 18 11 24 10 31 -7z m-29 -53 c-19 -4 -45 15 -45 35 0 10 8 7 31 -9
24 -18 27 -24 14 -26z m-80 -2 c3 -5 1 -10 -4 -10 -6 0 -11 5 -11 10 0 6 2 10
4 10 3 0 8 -4 11 -10z m168 -17 c-7 -2 -19 -2 -25 0 -7 3 -2 5 12 5 14 0 19
-2 13 -5z m95 0 c-10 -2 -28 -2 -40 0 -13 2 -5 4 17 4 22 1 32 -1 23 -4z"/>
<path d="M6686 2381 c-3 -5 3 -11 15 -14 16 -4 18 -3 8 9 -13 16 -16 17 -23 5z"/>
<path d="M7100 2211 c0 -5 5 -13 10 -16 6 -3 10 -2 10 4 0 5 -4 13 -10 16 -5
3 -10 2 -10 -4z"/>
<path d="M6516 2161 c-13 -5 -1 -8 35 -8 37 -1 48 1 34 7 -25 11 -44 11 -69 1z"/>
<path d="M6670 1990 c0 -5 10 -21 23 -37 12 -15 29 -40 36 -55 8 -15 27 -32
43 -39 24 -10 28 -16 24 -36 -8 -29 2 -29 36 0 25 22 26 25 13 44 -8 12 -39
35 -70 52 -30 17 -55 34 -55 37 0 3 20 -6 45 -21 25 -14 51 -25 57 -23 5 2
-26 22 -71 45 -45 23 -81 38 -81 33z m145 -120 c3 -5 -3 -10 -14 -10 -11 0
-23 5 -26 10 -3 6 3 10 14 10 11 0 23 -4 26 -10z"/>
<path d="M7005 1899 c-93 -20 -173 -45 -110 -34 17 3 66 9 110 15 44 5 103 16
130 24 l50 14 -45 0 c-25 0 -85 -8 -135 -19z"/>
<path d="M6860 1300 c0 -5 5 -10 11 -10 5 0 7 5 4 10 -3 6 -8 10 -11 10 -2 0
-4 -4 -4 -10z"/>
<path d="M7455 1041 c-11 -5 -58 -13 -105 -20 -47 -6 -96 -13 -110 -15 -14 -2
0 -4 30 -4 58 -2 178 20 207 37 21 12 7 13 -22 2z"/>
<path d="M7082 650 c0 -14 2 -19 5 -12 2 6 2 18 0 25 -3 6 -5 1 -5 -13z"/>
<path d="M4760 3716 l0 -53 -77 -50 c-43 -27 -241 -157 -441 -288 -341 -223
-364 -237 -381 -221 -27 25 -169 22 -249 -5 -82 -28 -117 -64 -132 -134 -6
-30 -18 -59 -27 -64 -12 -6 -15 -20 -11 -60 4 -41 2 -51 -8 -47 -7 3 -16 1
-19 -4 -9 -15 -88 -12 -111 5 -16 11 -20 22 -18 49 3 19 -1 38 -7 42 -8 5 -8
8 0 14 7 4 -11 16 -44 28 -70 27 -70 27 -96 1 -20 -20 -29 -21 -96 -16 -41 3
-77 8 -80 11 -3 3 0 13 8 23 13 15 12 16 -6 9 -11 -4 -42 -12 -68 -18 -56 -12
-64 -25 -43 -66 15 -29 20 -43 66 -171 12 -35 47 -110 77 -165 31 -56 67 -122
81 -148 23 -44 26 -47 39 -30 13 15 14 13 9 -22 -3 -22 -10 -44 -17 -50 -8 -8
-10 -5 -4 12 3 12 4 22 2 22 -5 0 -274 -321 -297 -354 -8 -12 -24 -31 -35 -42
-11 -10 -34 -37 -52 -59 l-32 -39 -83 33 c-122 48 -161 55 -215 41 -45 -13
-43 -30 4 -30 41 0 34 -19 -19 -50 -39 -22 -47 -30 -30 -30 31 0 28 -15 -7
-30 -20 -8 -38 -29 -56 -65 -24 -47 -26 -60 -20 -113 6 -54 5 -61 -13 -66 -39
-13 -73 -65 -84 -129 -6 -34 -17 -73 -25 -87 l-14 -25 5 25 c3 14 15 79 26
145 12 66 30 144 40 173 12 35 14 50 6 43 -16 -13 -77 -2 -155 28 -29 11 -56
19 -60 18 -3 -1 -27 5 -53 12 -35 10 -45 17 -41 29 5 12 0 14 -31 8 -24 -5
-36 -4 -32 2 8 13 -19 23 -39 15 -10 -3 -15 0 -13 8 2 8 -23 23 -67 39 -38 15
-77 29 -85 33 -8 3 -42 14 -75 23 -172 49 -205 48 -205 -7 0 -17 9 -44 21 -60
11 -16 18 -29 14 -29 -3 0 0 -10 6 -23 11 -20 11 -21 -4 -8 -10 7 -17 18 -17
23 0 6 -9 23 -20 38 -11 16 -23 42 -26 59 -8 38 -21 40 -35 4 -11 -30 -4 -148
11 -189 6 -15 6 -24 0 -24 -14 0 -12 -27 5 -59 9 -19 11 -38 6 -57 l-8 -29
-12 35 c-16 48 -33 68 -64 75 -24 7 -27 5 -27 -21 0 -41 -12 -21 -16 28 -3 28
4 64 17 101 27 73 19 85 -10 15 -52 -124 -129 -316 -141 -353 -7 -22 -17 -45
-22 -52 -12 -15 -40 -134 -33 -141 3 -3 5 3 5 13 0 35 20 1 24 -41 2 -21 7
-56 11 -76 6 -31 4 -38 -8 -38 -9 0 -22 -6 -29 -12 -7 -7 -31 -21 -52 -31
l-39 -18 16 25 c10 14 17 31 17 38 0 7 -13 -11 -29 -40 -16 -28 -51 -85 -78
-125 -50 -73 -90 -157 -75 -157 5 0 14 -18 21 -40 6 -22 16 -40 21 -40 5 0 7
8 4 18 -5 16 -5 16 6 -1 6 -9 9 -21 6 -25 -3 -5 8 -16 25 -26 22 -13 29 -14
29 -4 1 8 6 6 15 -6 7 -10 19 -15 25 -11 7 4 4 -5 -6 -19 -35 -55 -152 -134
-313 -213 -66 -32 -79 -35 -130 -30 -58 6 -102 -5 -65 -17 29 -8 103 -11 110
-3 4 4 13 2 19 -3 9 -8 15 -5 19 7 6 14 9 15 15 4 7 -11 13 -11 32 3 13 9 19
16 14 16 -6 1 13 8 40 18 52 18 215 127 250 167 11 13 40 49 65 81 38 48 45
53 48 35 4 -24 12 -27 29 -10 9 9 15 3 26 -22 13 -34 14 -34 26 -11 15 29 25
28 46 -5 12 -18 20 -59 26 -127 l7 -101 -2 101 c-1 95 0 101 16 90 13 -8 18
-24 18 -59 0 -31 4 -46 10 -42 7 4 9 -2 5 -17 -4 -16 1 -31 16 -48 l21 -25 -6
50 c-3 28 -5 61 -5 75 1 14 1 35 1 48 0 12 3 22 7 22 13 0 32 70 61 224 22
118 38 177 70 248 22 51 47 99 54 108 20 22 58 102 96 203 l34 88 56 -56 c30
-30 59 -55 64 -55 4 0 40 -22 79 -48 203 -136 259 -171 286 -177 40 -8 47 -35
22 -83 -11 -22 -18 -42 -15 -44 2 -3 -11 -38 -31 -79 -19 -40 -35 -80 -35 -87
0 -8 -13 -31 -29 -51 -16 -20 -37 -53 -47 -74 -16 -32 -16 -40 -3 -63 14 -26
13 -28 -65 -100 -64 -60 -105 -87 -210 -140 -130 -65 -131 -66 -192 -59 -39 4
-64 3 -68 -4 -8 -13 37 -25 64 -18 11 3 20 1 20 -4 0 -5 5 -9 11 -9 5 0 8 4 5
9 -3 4 8 7 24 5 16 -2 32 1 36 7 4 8 9 7 14 -1 6 -9 13 -7 29 9 11 11 32 23
46 27 14 3 25 10 25 15 0 5 7 9 15 9 41 0 202 126 277 218 24 30 31 33 60 27
38 -8 60 -23 52 -36 -3 -5 -1 -9 5 -9 5 0 12 4 16 9 3 6 17 6 35 0 31 -11 29
-7 44 -179 2 -25 3 1 2 57 -2 94 0 101 16 92 13 -7 18 -22 18 -54 0 -25 4 -45
9 -45 4 0 6 -12 3 -26 -3 -17 2 -31 17 -45 l21 -20 0 41 c0 23 -4 39 -9 36 -5
-4 -8 2 -6 11 2 10 4 25 5 33 1 13 2 13 13 0 30 -37 77 3 77 66 0 29 76 295
117 412 l15 43 22 -19 c11 -11 59 -39 106 -62 139 -69 344 -183 355 -196 25
-31 90 -64 126 -64 l39 0 1 -42 c0 -24 3 -63 6 -87 5 -40 3 -43 -13 -37 -15 6
-17 5 -6 -5 26 -27 14 -36 -33 -25 -24 7 -47 15 -51 19 -13 13 -42 7 -48 -9
-3 -8 -11 -12 -17 -8 -8 4 -9 3 -5 -4 4 -7 13 -12 20 -12 7 0 18 -15 24 -32 8
-26 10 -28 11 -10 1 24 8 27 30 13 8 -5 11 -17 7 -28 -7 -20 -41 -24 -78 -8
-11 4 -18 3 -18 -4 0 -15 -20 -14 -39 3 -23 20 -206 36 -403 36 l-168 0 0 -35
c0 -27 4 -35 18 -35 9 0 73 -7 142 -15 69 -8 195 -22 280 -30 342 -32 473 -45
494 -50 38 -9 479 -57 567 -62 108 -7 179 12 234 62 38 33 39 35 21 49 -19 15
-45 21 -221 51 -114 19 -338 31 -291 15 16 -5 61 -12 100 -15 39 -3 92 -11
118 -16 25 -6 57 -12 70 -13 12 -2 61 -9 108 -16 l85 -13 -58 -28 c-96 -45
-240 -46 -517 -5 -58 9 -123 18 -145 21 -120 15 -251 39 -260 48 -7 6 -3 7 10
4 11 -4 94 -13 185 -22 181 -17 262 -28 300 -43 15 -5 35 -6 48 -1 13 5 21 5
18 0 -7 -11 71 -22 93 -13 10 4 -3 9 -34 13 -41 5 -33 6 45 8 76 3 88 5 60 11
-19 5 -73 9 -120 9 -47 0 -107 7 -135 15 -27 8 -42 15 -32 15 31 2 18 17 -32
35 -27 9 -83 38 -125 62 l-76 46 0 80 0 80 88 -7 c129 -12 138 -12 387 -24
252 -11 243 -12 265 49 7 19 32 89 55 155 83 234 104 292 158 430 66 169 107
296 114 350 3 22 9 42 13 45 8 5 54 144 55 165 0 6 6 20 13 32 7 12 11 26 10
30 -2 4 14 53 33 108 49 136 67 192 74 242 4 23 13 47 21 54 8 6 14 29 14 50
0 22 5 39 11 39 6 0 8 9 4 21 -4 12 2 38 15 65 21 47 20 69 -6 112 -16 25 -47
31 -38 7 11 -27 -5 -16 -21 15 -18 35 -19 43 -3 38 7 -3 19 9 28 26 10 17 35
63 58 101 47 80 68 175 38 175 -9 0 -16 4 -16 10 0 14 -45 41 -72 42 -12 1
-28 5 -33 9 -6 4 -23 10 -38 13 -15 2 -39 14 -53 25 -34 26 -119 30 -128 5
-10 -27 -7 -43 15 -63 20 -18 24 -19 50 -5 26 13 43 4 19 -11 -16 -10 -1 -25
18 -18 32 12 -8 -27 -49 -48 -43 -22 -49 -23 -49 -10 0 5 9 13 20 16 39 12 19
25 -40 25 -52 0 -60 2 -60 19 0 11 15 28 33 40 37 24 25 27 -24 7 -85 -36
-133 -133 -94 -192 l17 -27 -38 9 c-22 5 -68 9 -104 9 -47 0 -64 4 -63 13 2 6
-2 12 -7 12 -6 0 -10 5 -10 10 0 6 6 10 14 10 8 0 18 9 21 20 3 11 15 20 26
20 10 0 19 4 19 10 0 5 15 12 33 15 42 8 44 36 4 61 -16 11 -37 38 -48 62 -10
24 -29 47 -44 54 -14 6 -25 14 -25 17 0 3 184 126 408 273 l407 267 65 3 c36
2 64 6 63 11 -2 4 -3 39 -3 77 l0 70 -65 0 -65 0 0 -54z m-1130 -630 c0 -2 -7
-6 -15 -10 -8 -3 -15 -1 -15 4 0 6 7 10 15 10 8 0 15 -2 15 -4z m170 -61 c30
-64 40 -141 21 -160 -5 -6 -12 -32 -16 -60 -3 -27 -12 -60 -20 -72 -14 -20
-109 -63 -141 -63 -8 0 -26 -7 -39 -16 -47 -31 -67 -16 -87 61 -26 102 -28
127 -14 154 10 17 11 34 3 62 -5 21 -7 45 -4 53 7 18 107 75 161 92 22 7 56
13 73 13 30 1 35 -3 63 -64z m720 -125 c0 -5 -10 -10 -22 -9 -22 0 -22 1 -3 9
11 5 21 9 23 9 1 1 2 -3 2 -9z m-50 -10 c0 -5 -5 -10 -11 -10 -5 0 -7 5 -4 10
3 6 8 10 11 10 2 0 4 -4 4 -10z m-50 -18 c0 -8 -43 -32 -58 -32 -6 0 49 40 56
40 1 0 2 -4 2 -8z m-1492 -45 c15 -16 19 -26 11 -34 -7 -7 -3 -22 15 -48 30
-44 34 -70 10 -61 -15 6 -15 4 0 -18 9 -14 16 -33 16 -43 0 -37 -23 8 -61 116
-39 114 -36 136 9 88z m977 3 c3 -5 -1 -10 -9 -10 -9 0 -16 5 -16 10 0 6 4 10
9 10 6 0 13 -4 16 -10z m545 2 c0 -5 -14 -21 -31 -38 -38 -36 -99 -127 -99
-148 0 -21 -56 -120 -71 -125 -17 -5 -5 49 22 104 12 24 19 49 17 56 -7 22
-56 -61 -64 -109 -4 -23 -11 -45 -15 -48 -5 -3 -7 -9 -4 -14 3 -5 -6 -28 -21
-52 -15 -23 -29 -56 -31 -72 -4 -42 -40 -113 -85 -170 -21 -27 -38 -53 -38
-57 0 -5 -4 -9 -10 -9 -25 0 2 122 40 187 11 19 20 39 20 45 0 6 7 19 16 29 8
9 17 23 18 31 4 24 48 88 56 83 5 -3 8 4 7 15 -1 11 -4 20 -7 20 -10 0 -55
-53 -79 -91 -12 -21 -32 -44 -46 -53 -14 -9 -24 -20 -23 -24 4 -11 -31 -57
-38 -50 -3 4 -2 12 2 19 4 7 8 41 7 76 0 35 3 63 6 63 17 0 55 76 57 114 4 88
19 101 110 91 35 -3 64 -8 64 -11 0 -6 -91 -89 -104 -93 -6 -2 -4 4 4 15 8 10
-12 -7 -45 -38 -40 -38 -60 -66 -61 -83 -1 -14 0 -25 3 -25 9 0 93 90 93 100
0 6 4 10 10 10 5 0 6 -8 3 -17 -6 -16 -5 -16 11 -4 9 8 15 20 12 26 -6 17 73
102 82 88 5 -8 12 -1 21 18 12 28 31 40 31 18 0 -5 5 -7 10 -4 6 3 10 19 10
34 0 31 17 49 75 79 43 22 65 27 65 14z m-1325 -124 c-1 -13 -3 -41 -4 -62 -1
-52 -10 -42 -12 14 -2 65 0 82 10 76 4 -3 7 -16 6 -28z m331 -24 c6 -8 14 -36
18 -62 3 -26 13 -58 22 -70 8 -12 12 -22 8 -22 -4 0 -58 25 -119 55 -112 55
-165 89 -165 105 0 23 217 18 236 -6z m584 -42 c0 -4 -15 -13 -34 -20 -27 -10
-38 -23 -55 -64 -25 -61 -26 -77 -4 -120 33 -66 33 -65 7 -77 -23 -10 -25 -16
-23 -69 2 -31 7 -72 12 -89 8 -27 7 -36 -8 -53 -10 -11 -22 -20 -26 -20 -11 0
-64 81 -76 117 -12 33 4 76 52 142 l25 35 -30 28 c-23 21 -41 28 -70 28 -55 0
-86 -14 -139 -65 -25 -24 -71 -63 -102 -87 -117 -90 -136 -104 -194 -153 -33
-27 -62 -51 -64 -52 -2 -2 -2 -5 0 -8 3 -2 41 22 84 55 84 62 125 81 65 29
-34 -29 -34 -30 -8 -24 18 5 35 1 50 -9 12 -9 32 -15 43 -15 20 1 20 1 0 6
-38 10 -46 22 -31 52 22 41 107 124 166 162 85 54 88 55 43 8 -33 -35 -41 -49
-36 -71 3 -18 10 -25 19 -21 8 3 23 -2 33 -11 10 -9 20 -13 24 -10 10 10 20
-44 12 -63 -12 -27 -11 -47 3 -61 28 -31 14 -81 -48 -165 -93 -128 -129 -163
-180 -177 -50 -13 -90 -35 -90 -50 0 -16 64 -11 89 7 21 14 34 15 120 4 53 -7
112 -17 131 -22 170 -46 320 -81 320 -73 0 2 -7 25 -16 51 -11 33 -15 69 -12
119 4 62 13 87 66 196 51 103 73 136 127 190 36 36 65 74 66 84 0 11 3 14 6 6
8 -19 23 -3 23 25 0 49 23 102 64 147 47 50 68 52 99 10 16 -22 17 -31 7 -77
-19 -86 -41 -150 -64 -187 -28 -44 -65 -125 -112 -243 -19 -51 -44 -112 -53
-137 -23 -56 -40 -135 -39 -177 1 -30 3 -32 32 -26 23 4 28 3 20 -6 -24 -26
-198 -10 -502 48 l-144 28 -31 -21 c-17 -12 -43 -37 -57 -57 -14 -19 -40 -55
-58 -79 -17 -24 -42 -69 -53 -102 -25 -67 -36 -71 -19 -6 15 53 21 70 49 131
28 63 12 52 -30 -21 -54 -92 -61 -118 -80 -302 -12 -129 -18 -136 -13 -17 2
63 0 96 -6 92 -6 -3 -10 -17 -10 -29 0 -17 -5 -23 -20 -22 -12 0 -24 6 -28 13
-24 39 -189 78 -292 69 -42 -3 -56 -2 -40 3 14 5 39 10 55 11 17 1 24 4 16 7
-7 3 -51 -2 -98 -12 -46 -10 -86 -15 -89 -12 -11 11 102 37 204 47 86 8 109 7
132 -5 30 -16 64 -10 57 9 -3 7 10 17 29 22 36 12 46 2 17 -15 -10 -5 -15 -12
-12 -15 17 -18 39 27 53 107 8 51 26 112 42 143 15 30 25 56 23 58 -2 3 -28
-11 -58 -31 -47 -31 -68 -40 -143 -58 -10 -2 -18 1 -18 7 0 5 7 8 15 4 8 -3
15 0 15 6 0 6 8 17 18 25 9 8 11 11 3 7 -10 -5 -13 -3 -8 8 11 29 -5 28 -40
-2 -18 -17 -38 -30 -42 -30 -5 0 -16 19 -26 42 -18 47 -72 130 -109 169 -15
16 -40 29 -66 33 -36 6 -40 9 -30 21 7 8 22 15 34 15 17 0 18 2 6 10 -12 8
-10 14 12 37 16 17 32 53 42 92 15 57 84 213 105 233 4 5 5 -8 3 -28 -3 -20 0
-34 5 -31 4 3 3 -44 -4 -106 -7 -61 -11 -113 -9 -115 8 -7 67 29 61 38 -3 5 3
15 13 22 10 7 27 32 38 55 12 27 31 47 52 57 29 14 88 56 161 114 16 13 20 21
11 24 -8 2 -3 22 18 68 17 36 34 77 37 92 4 15 13 32 21 39 8 6 14 17 14 24 0
6 9 20 20 30 11 10 20 25 20 34 1 14 3 13 14 -2 8 -10 12 -27 9 -37 -3 -12 0
-20 8 -20 8 0 5 -8 -8 -22 -11 -13 -26 -41 -33 -63 -7 -22 -16 -44 -20 -50 -4
-5 -10 -23 -14 -40 -13 -55 12 -13 40 65 34 99 48 112 40 38 -3 -32 -4 -58 -1
-58 2 0 16 17 31 38 14 20 24 29 20 20 -3 -10 -9 -26 -12 -35 -5 -13 1 -11 18
7 14 14 24 27 22 29 -11 12 59 34 114 36 34 1 63 4 65 6 52 75 147 147 147
111z m-925 -82 c-3 -5 -1 -19 5 -30 14 -26 3 -70 -16 -63 -15 6 -17 36 -7 97
5 30 8 35 15 22 5 -9 6 -21 3 -26z m55 -131 c-27 -69 -34 -72 -33 -14 0 14 53
98 59 93 2 -2 -10 -38 -26 -79z m273 -31 c-81 -116 -150 -198 -166 -198 -5 0
-5 6 1 13 6 7 9 39 6 75 -3 46 -1 62 8 62 23 0 133 57 152 79 36 40 36 21 -1
-31z m-183 -115 c-4 -55 -13 -111 -20 -124 -17 -32 -61 -79 -75 -79 -15 0 -6
66 11 81 16 13 19 33 4 24 -5 -3 -10 -3 -10 1 0 19 35 125 59 176 34 75 42 55
31 -79z m1289 -7 c-9 -8 -10 -7 -5 7 3 10 7 24 7 30 1 7 3 4 6 -7 3 -10 -1
-23 -8 -30z m-1024 -25 c-3 -6 -11 -11 -17 -11 -6 0 -6 6 2 15 14 17 26 13 15
-4z m985 -60 c-4 -16 -13 -38 -19 -48 -9 -15 -10 -13 -5 12 10 52 15 65 24 65
5 0 5 -13 0 -29z m-39 -114 c-13 -13 -15 1 -4 30 7 17 8 17 11 -1 2 -10 -1
-23 -7 -29z m-42 -163 c-54 -146 -59 -158 -66 -151 -3 4 -1 12 4 19 6 7 13 27
17 43 6 27 40 120 67 184 5 13 12 22 14 19 3 -2 -13 -54 -36 -114z m-2804 -76
c72 -22 134 -44 140 -49 15 -15 -1 -11 -108 26 -107 37 -121 40 -113 27 6 -10
-120 31 -131 42 -15 16 84 -6 212 -46z m1325 42 c0 -5 -7 -10 -15 -10 -8 0
-15 -4 -15 -9 0 -4 12 -6 26 -3 19 3 25 1 20 -7 -4 -6 -16 -11 -27 -11 -11 0
-48 -11 -82 -24 -82 -33 -122 -42 -113 -27 4 6 14 11 23 11 8 0 41 16 73 35
46 28 89 50 108 54 1 1 2 -3 2 -9z m56 -212 l29 -33 -32 29 c-31 28 -38 36
-30 36 2 0 16 -15 33 -32z m176 -165 c3 -29 2 -53 -2 -53 -13 0 -20 30 -20 83
1 65 16 44 22 -30z m-1987 -53 c18 -34 18 -40 5 -40 -5 0 -10 9 -10 19 0 11
-4 23 -10 26 -5 3 -10 10 -10 16 0 17 9 9 25 -21z m5 -203 c0 -5 -4 -5 -10 -2
-5 3 -10 14 -10 23 0 15 2 15 10 2 5 -8 10 -19 10 -23z m-160 -9 c-1 -31 -1
-32 -15 -14 -19 25 -19 46 0 46 10 0 15 -10 15 -32z m1100 7 c0 -8 -4 -15 -10
-15 -5 0 -7 7 -4 15 4 8 8 15 10 15 2 0 4 -7 4 -15z m-10 -44 c0 -6 -4 -13
-10 -16 -5 -3 -10 1 -10 9 0 9 5 16 10 16 6 0 10 -4 10 -9z m428 -25 c37 -19
182 -53 261 -61 72 -7 115 -21 107 -34 -3 -4 6 -13 21 -20 30 -14 310 -14 319
0 3 5 15 9 27 9 28 0 79 34 89 57 17 43 6 -46 -12 -97 -26 -74 -25 -88 8 -101
17 -7 22 -13 14 -16 -8 -3 -26 4 -41 14 -23 18 -49 21 -226 26 -220 7 -351 24
-417 54 -24 11 -78 35 -120 53 -76 32 -107 54 -95 67 4 3 48 -9 99 -26 130
-45 128 -44 128 -34 0 4 -35 19 -77 31 -120 36 -142 47 -136 71 6 25 15 26 51
7z m-21 -112 c21 -9 47 -21 58 -27 11 -6 45 -18 75 -28 67 -22 48 -24 -42 -5
-36 8 -85 26 -107 40 -61 39 -52 49 16 20z m-52 -34 c3 -5 1 -10 -4 -10 -6 0
-11 5 -11 10 0 6 2 10 4 10 3 0 8 -4 11 -10z m-1512 -25 c-3 -9 -8 -14 -10
-11 -3 3 -2 9 2 15 9 16 15 13 8 -4z m2442 -119 c18 -3 35 -17 31 -25 -3 -3
42 -47 99 -96 57 -50 104 -94 104 -99 1 -6 -14 4 -31 21 -33 32 -57 50 -155
118 -29 21 -53 41 -53 47 0 5 -10 19 -22 30 -21 18 -21 19 -3 13 11 -4 25 -8
30 -9z m-2436 -33 c0 -5 -4 -17 -9 -28 -8 -18 -9 -17 -9 8 -1 15 4 27 9 27 6
0 10 -3 9 -7z m2157 -93 c4 -27 9 -48 13 -46 10 7 3 -176 -8 -187 -17 -17 -31
65 -30 177 1 111 14 141 25 56z m11 -292 c-3 -7 -5 -2 -5 12 0 14 2 19 5 13 2
-7 2 -19 0 -25z m-122 -36 c-2 -3 -11 1 -20 8 -8 7 -15 9 -15 4 0 -11 -20 18
-20 29 0 4 13 -2 30 -14 16 -13 28 -25 25 -27z m164 -41 c-12 -28 -26 -51 -31
-51 -5 0 -8 3 -6 8 2 4 15 30 29 58 30 65 38 53 8 -15z m35 14 c-23 -49 -28
-39 -7 15 9 23 19 38 21 32 2 -6 -4 -27 -14 -47z m-117 7 c13 -8 2 -34 -13
-31 -5 1 -11 0 -14 -1 -19 -7 -40 -7 -40 1 0 5 7 9 15 9 9 0 18 7 21 15 7 17
13 18 31 7z m33 -47 c-7 -8 -22 -15 -34 -15 -19 0 -18 2 9 24 30 25 47 18 25
-9z m60 -15 c0 -5 -5 -10 -11 -10 -5 0 -7 5 -4 10 3 6 8 10 11 10 2 0 4 -4 4
-10z m-232 -17 c-10 -2 -28 -2 -40 0 -13 2 -5 4 17 4 22 1 32 -1 23 -4z m75 0
c-7 -2 -19 -2 -25 0 -7 3 -2 5 12 5 14 0 19 -2 13 -5z"/>
<path d="M3511 2376 c-10 -12 -8 -13 8 -9 12 3 18 9 15 14 -7 12 -10 11 -23
-5z"/>
<path d="M3107 2213 c-4 -3 -7 -11 -7 -17 0 -6 5 -5 12 2 6 6 9 14 7 17 -3 3
-9 2 -12 -2z"/>
<path d="M3635 2160 c-14 -6 -3 -8 34 -7 36 0 48 3 35 8 -25 10 -44 10 -69 -1z"/>
<path d="M3466 1956 c-43 -22 -74 -42 -68 -44 6 -2 32 9 57 23 25 15 45 24 45
21 0 -3 -25 -20 -55 -37 -31 -17 -62 -40 -70 -52 -13 -19 -12 -22 13 -44 34
-29 44 -29 36 0 -4 20 0 26 25 36 16 7 37 27 46 44 8 18 25 44 37 59 12 15 20
29 17 31 -2 2 -39 -15 -83 -37z m-21 -86 c-3 -5 -15 -10 -26 -10 -11 0 -17 5
-14 10 3 6 15 10 26 10 11 0 17 -4 14 -10z"/>
<path d="M3105 1900 c39 -11 88 -20 110 -20 22 0 57 -5 78 -11 21 -6 44 -8 50
-6 19 6 -171 48 -243 52 l-65 5 70 -20z"/>
<path d="M3345 1300 c-3 -5 -1 -10 4 -10 6 0 11 5 11 10 0 6 -2 10 -4 10 -3 0
-8 -4 -11 -10z"/>
<path d="M2743 1040 c27 -18 147 -40 207 -38 45 1 48 2 15 5 -52 5 -194 29
-220 38 -18 6 -18 5 -2 -5z"/>
<path d="M3132 650 c0 -14 2 -19 5 -12 2 6 2 18 0 25 -3 6 -5 1 -5 -13z"/>
<path d="M3996 2817 c3 -10 9 -15 12 -12 3 3 0 11 -7 18 -10 9 -11 8 -5 -6z"/>
<path d="M6215 2819 c-4 -6 -5 -12 -2 -15 2 -3 7 2 10 11 7 17 1 20 -8 4z"/>
<path d="M1260 1634 c0 -5 7 -19 15 -30 8 -10 15 -14 15 -8 0 5 -7 19 -15 30
-8 10 -15 14 -15 8z"/>
<path d="M8940 1620 c-6 -12 -9 -24 -7 -27 3 -2 11 5 17 17 6 12 9 24 7 27 -3
2 -11 -5 -17 -17z"/>
<path d="M1071 514 c0 -11 3 -14 6 -6 3 7 2 16 -1 19 -3 4 -6 -2 -5 -13z"/>
<path d="M9141 514 c0 -11 3 -14 6 -6 3 7 2 16 -1 19 -3 4 -6 -2 -5 -13z"/>
<path d="M1272 425 c-2 -75 -1 -72 -72 -114 -17 -10 -58 -15 -130 -16 -58 -1
-112 -5 -119 -10 -10 -6 -12 -4 -6 5 6 9 2 10 -15 5 -13 -4 -20 -3 -17 2 3 5
-3 9 -13 10 -11 1 -22 -2 -25 -8 -4 -5 2 -6 11 -2 11 4 15 3 10 -5 -8 -14 -75
-6 -111 12 -18 10 -37 11 -62 5 -21 -4 -41 -6 -45 -3 -4 3 -8 1 -8 -4 0 -4
-16 -7 -35 -6 -19 2 -35 0 -35 -5 0 -14 -78 -34 -114 -28 -20 3 -52 18 -73 34
l-36 28 6 -34 c12 -58 46 -82 134 -94 43 -7 130 -11 193 -11 93 1 126 5 175
23 91 35 115 41 115 30 0 -5 -7 -9 -17 -9 -9 0 -13 -3 -9 -7 11 -11 80 -3 88
10 5 8 8 8 8 1 0 -7 23 -5 68 6 89 23 102 29 103 49 0 10 2 11 6 4 9 -23 22
-14 28 19 3 18 5 67 3 108 l-4 75 -2 -70z m-212 -155 c8 -5 11 -10 5 -10 -5 0
-17 5 -25 10 -8 5 -10 10 -5 10 6 0 17 -5 25 -10z m100 0 c0 -5 -5 -10 -11
-10 -5 0 -7 5 -4 10 3 6 8 10 11 10 2 0 4 -4 4 -10z m-125 -30 c-3 -5 -11 -10
-16 -10 -6 0 -7 5 -4 10 3 6 11 10 16 10 6 0 7 -4 4 -10z"/>
<path d="M2445 483 c-16 -3 -34 -9 -40 -15 -7 -8 -4 -9 10 -4 38 15 221 19
289 7 71 -13 141 -4 81 10 -32 7 -291 9 -340 2z"/>
<path d="M7435 481 c-58 -14 8 -23 81 -10 68 12 251 8 289 -7 17 -6 18 -5 7 7
-9 10 -53 14 -180 16 -92 1 -180 -2 -197 -6z"/>
<path d="M8944 388 c1 -96 9 -125 26 -98 8 13 10 13 10 -1 0 -20 12 -25 103
-49 44 -11 67 -13 67 -6 0 7 3 7 8 -1 8 -13 77 -21 88 -10 4 4 0 7 -9 7 -9 0
-17 4 -17 9 0 11 24 5 115 -30 49 -18 82 -22 175 -23 63 0 150 4 193 11 88 12
122 36 134 94 l6 34 -36 -28 c-21 -16 -53 -31 -73 -34 -36 -6 -114 14 -114 28
0 5 -16 7 -35 5 -19 -1 -35 2 -35 6 0 5 -4 7 -8 4 -4 -3 -24 -1 -45 3 -25 6
-44 5 -62 -5 -36 -18 -103 -26 -111 -12 -5 8 -1 9 10 5 9 -4 15 -3 11 2 -3 6
-14 9 -25 8 -10 -1 -16 -5 -13 -10 3 -5 -4 -6 -17 -2 -17 5 -21 4 -15 -5 6 -9
4 -11 -6 -5 -7 5 -61 9 -119 10 -104 1 -120 5 -177 46 -18 12 -23 27 -26 80
-2 38 -3 25 -3 -33z m131 -118 c3 -5 1 -10 -4 -10 -6 0 -11 5 -11 10 0 6 2 10
4 10 3 0 8 -4 11 -10z m105 0 c-8 -5 -19 -10 -25 -10 -5 0 -3 5 5 10 8 5 20
10 25 10 6 0 3 -5 -5 -10z m25 -30 c3 -5 2 -10 -4 -10 -5 0 -13 5 -16 10 -3 6
-2 10 4 10 5 0 13 -4 16 -10z"/>
<path d="M1072 455 c0 -16 2 -22 5 -12 2 9 2 23 0 30 -3 6 -5 -1 -5 -18z"/>
<path d="M9142 455 c0 -16 2 -22 5 -12 2 9 2 23 0 30 -3 6 -5 -1 -5 -18z"/>
<path d="M2877 459 c7 -7 15 -10 18 -7 3 3 -2 9 -12 12 -14 6 -15 5 -6 -5z"/>
<path d="M7330 460 c-9 -6 -10 -10 -3 -10 6 0 15 5 18 10 8 12 4 12 -15 0z"/>
<path d="M2062 435 c0 -16 2 -22 5 -12 2 9 2 23 0 30 -3 6 -5 -1 -5 -18z"/>
<path d="M2818 453 c7 -3 16 -2 19 1 4 3 -2 6 -13 5 -11 0 -14 -3 -6 -6z"/>
<path d="M7388 453 c7 -3 16 -2 19 1 4 3 -2 6 -13 5 -11 0 -14 -3 -6 -6z"/>
<path d="M8152 435 c0 -16 2 -22 5 -12 2 9 2 23 0 30 -3 6 -5 -1 -5 -18z"/>
<path d="M2262 400 c-2 -61 -11 -73 -76 -104 -42 -20 -206 -30 -238 -14 -10 5
-19 4 -23 -2 -9 -15 -27 -12 -19 3 4 6 -2 4 -13 -5 -24 -22 -40 -24 -23 -2 12
13 10 14 -12 4 -20 -9 -35 -8 -72 4 -26 9 -51 14 -56 11 -5 -3 -37 -7 -71 -9
-37 -3 -65 -10 -70 -18 -5 -7 -9 -9 -9 -4 0 4 -11 1 -25 -8 -33 -22 -99 -13
-149 21 l-39 25 7 -33 c3 -19 13 -39 21 -45 8 -6 12 -13 9 -16 -28 -28 407
-41 471 -14 19 8 35 13 35 11 0 -2 16 3 35 11 43 18 56 18 32 0 -12 -9 -14
-16 -8 -21 6 -3 11 -2 11 4 0 6 12 8 30 5 18 -4 30 -2 30 4 0 5 7 13 16 16 8
3 12 2 9 -4 -7 -11 34 -5 113 16 46 13 52 18 53 42 l1 27 8 -25 7 -25 12 29
c7 17 10 61 8 100 -3 65 -3 66 -5 16z m-112 -144 c0 -3 -4 -8 -10 -11 -5 -3
-10 -1 -10 4 0 6 5 11 10 11 6 0 10 -2 10 -4z"/>
<path d="M7952 383 c-1 -39 3 -84 9 -100 l12 -28 7 25 8 25 1 -27 c1 -24 7
-29 54 -42 78 -21 119 -27 112 -16 -3 6 1 7 9 4 9 -3 16 -11 16 -16 0 -6 12
-8 30 -4 18 3 30 1 30 -5 0 -6 5 -7 11 -4 6 5 4 12 -8 21 -24 18 -11 18 32 0
19 -8 35 -13 35 -11 0 2 16 -3 35 -11 64 -27 499 -14 471 14 -3 3 1 10 9 16 8
6 18 26 21 45 l7 33 -39 -25 c-50 -34 -116 -43 -149 -21 -14 9 -25 12 -25 8 0
-5 -4 -3 -9 4 -5 8 -33 15 -70 18 -34 2 -66 6 -71 9 -5 3 -30 -2 -56 -11 -37
-12 -52 -13 -72 -4 -22 10 -24 9 -12 -4 17 -22 1 -20 -23 2 -11 9 -17 11 -13
5 8 -15 -10 -18 -19 -3 -4 6 -13 7 -23 2 -32 -16 -196 -6 -238 14 -62 29 -72
44 -77 104 -3 51 -3 50 -5 -17z m138 -133 c0 -5 -2 -10 -4 -10 -3 0 -8 5 -11
10 -3 6 -1 10 4 10 6 0 11 -4 11 -10z"/>
<path d="M2428 433 c12 -2 30 -2 40 0 9 3 -1 5 -23 4 -22 0 -30 -2 -17 -4z"/>
<path d="M7758 433 c12 -2 30 -2 40 0 9 3 -1 5 -23 4 -22 0 -30 -2 -17 -4z"/>
<path d="M3416 409 c3 -5 12 -9 21 -9 19 0 9 13 -12 16 -8 1 -13 -2 -9 -7z"/>
<path d="M6774 408 c-3 -4 2 -8 10 -8 8 0 17 4 20 8 3 5 -2 9 -10 9 -8 0 -17
-4 -20 -9z"/>
<path d="M1090 400 c0 -5 5 -10 10 -10 6 0 10 5 10 10 0 6 -4 10 -10 10 -5 0
-10 -4 -10 -10z"/>
<path d="M9110 400 c0 -5 5 -10 10 -10 6 0 10 5 10 10 0 6 -4 10 -10 10 -5 0
-10 -4 -10 -10z"/>
<path d="M2080 390 c0 -5 5 -10 11 -10 5 0 7 5 4 10 -3 6 -8 10 -11 10 -2 0
-4 -4 -4 -10z"/>
<path d="M8125 390 c-3 -5 -1 -10 4 -10 6 0 11 5 11 10 0 6 -2 10 -4 10 -3 0
-8 -4 -11 -10z"/>
<path d="M3725 330 c3 -5 11 -10 16 -10 6 0 7 5 4 10 -3 6 -11 10 -16 10 -6 0
-7 -4 -4 -10z"/>
<path d="M6475 330 c-3 -5 -2 -10 4 -10 5 0 13 5 16 10 3 6 2 10 -4 10 -5 0
-13 -4 -16 -10z"/>
<path d="M3846 292 c-2 -4 4 -8 15 -8 10 0 19 4 19 8 0 4 -6 8 -14 8 -8 0 -17
-4 -20 -8z"/>
<path d="M6340 292 c0 -4 9 -8 19 -8 11 0 17 4 15 8 -3 4 -12 8 -20 8 -8 0
-14 -4 -14 -8z"/>
<path d="M3760 260 c19 -13 30 -13 30 0 0 6 -10 10 -22 10 -19 0 -20 -2 -8
-10z"/>
<path d="M6430 260 c0 -13 11 -13 30 0 12 8 11 10 -7 10 -13 0 -23 -4 -23 -10z"/>
</g>
</svg>
